<?xml version="1.0" encoding="UTF-8" standalone="no"?>
<svg
   xmlns:dc="http://purl.org/dc/elements/1.1/"
   xmlns:cc="http://creativecommons.org/ns#"
   xmlns:rdf="http://www.w3.org/1999/02/22-rdf-syntax-ns#"
   xmlns:svg="http://www.w3.org/2000/svg"
   xmlns="http://www.w3.org/2000/svg"
   xmlns:sodipodi="http://sodipodi.sourceforge.net/DTD/sodipodi-0.dtd"
   xmlns:inkscape="http://www.inkscape.org/namespaces/inkscape"
   width="230mm"
   height="63mm"
   viewBox="0 0 230 63"
   version="1.1"
   id="svg8"
   inkscape:version="1.0 (4035a4fb49, 2020-05-01)"
   sodipodi:docname="logo_pkshoes3.svg">
  <defs
     id="defs2" />
  <sodipodi:namedview
     inkscape:guide-bbox="true"
     showguides="true"
     id="base"
     pagecolor="#ffffff"
     bordercolor="#666666"
     borderopacity="1.0"
     inkscape:pageopacity="0.0"
     inkscape:pageshadow="2"
     inkscape:zoom="0.67220217"
     inkscape:cx="405.04872"
     inkscape:cy="252.8135"
     inkscape:document-units="mm"
     inkscape:current-layer="layer1"
     inkscape:document-rotation="0"
     showgrid="false"
     inkscape:window-width="1366"
     inkscape:window-height="702"
     inkscape:window-x="-8"
     inkscape:window-y="-8"
     inkscape:window-maximized="1" />
  <metadata
     id="metadata5">
    <rdf:RDF>
      <cc:Work
         rdf:about="">
        <dc:format>image/svg+xml</dc:format>
        <dc:type
           rdf:resource="http://purl.org/dc/dcmitype/StillImage" />
        <dc:title></dc:title>
      </cc:Work>
    </rdf:RDF>
  </metadata>
  <g
     inkscape:label="Layer 1"
     inkscape:groupmode="layer"
     id="layer1">
    <path
       id="path833"
       style="fill:#f1faee;fill-opacity:1;fill-rule:evenodd;stroke-width:0.0940306"
       d="m 26.989282,5.4331734 a 25.71756,25.71756 0 0 0 -3.9752,0.308906 c -0.222674,0.05447 -0.444499,0.112412 -0.664279,0.177595 1.15451,0.130172 2.270897,0.38708 3.334797,0.757023 1.049413,-0.495884 2.131219,-0.864242 3.226808,-1.10909 -0.212203,-0.03906 -0.424825,-0.07308 -0.637648,-0.102295 a 25.71756,25.71756 0 0 0 -1.284478,-0.03214 z m 5.184379,1.158124 c -1.570333,0.01324 -3.153212,0.289024 -4.682452,0.845912 1.449682,0.721627 2.770751,1.663068 3.919552,2.7812626 1.481131,-0.5511626 3.06872,-0.8817366 4.72304,-0.9529826 -0.802779,-0.767994 -1.709111,-1.453901 -2.714779,-2.034523 -0.408741,-0.235988 -0.824442,-0.448754 -1.245361,-0.639669 z m 3.412667,0.388797 c 0.934989,0.690113 1.773276,1.471062 2.509821,2.323595 1.157,0.09524 2.278605,0.317063 3.350036,0.652892 -0.1689,-0.143919 -0.341707,-0.282124 -0.516427,-0.417263 a 25.71756,25.71756 0 0 0 -4.687602,-2.384018 c -0.217298,-0.06323 -0.435732,-0.12246 -0.655828,-0.175206 z M 20.59774,7.2206814 c -0.47185,0 -0.93811,0.02341 -1.397977,0.06851 -1.353516,0.796657 -2.586645,1.826982 -3.632685,3.0740076 1.616095,-0.09983 3.230934,0.0551 4.784749,0.449035 1.00722,-1.2180126 2.216888,-2.2984076 3.614135,-3.1873226 -1.079203,-0.2637 -2.207005,-0.404222 -3.368222,-0.404223 z m -4.734978,0.813038 c -0.208974,0.07427 -0.414996,0.154504 -0.619283,0.2382 a 25.71756,25.71756 0 0 0 -4.409727,2.8688656 c -0.162842,0.156048 -0.322843,0.314944 -0.478051,0.478603 1.064975,-0.464518 2.160267,-0.800022 3.266661,-1.011568 0.660987,-0.9542756 1.413863,-1.8141986 2.2404,-2.5741006 z m 9.90889,0.163269 c -0.177028,0.09257 -0.353168,0.188236 -0.527823,0.289072 -1.317949,0.760921 -2.465919,1.7020276 -3.432317,2.7731806 1.516296,0.546676 2.951344,1.329291 4.244621,2.331677 1.160922,-1.118182 2.495362,-2.057447 3.958672,-2.772999 C 28.777953,9.7094264 27.344357,8.8159464 25.771652,8.1969884 Z M 36.810383,10.65006 c -1.521822,0 -2.986364,0.241143 -4.358852,0.685582 1.039726,1.231481 1.891014,2.626637 2.509821,4.141223 1.564344,-0.38783 3.189436,-0.533809 4.814317,-0.421854 -0.516869,-1.578346 -1.311721,-3.069014 -2.364184,-4.39136 -0.19943,-0.0083 -0.399594,-0.0136 -0.601102,-0.0136 z m 2.470337,0.215243 c 0.894602,1.34974 1.567698,2.82568 2.003485,4.368404 1.558481,0.263266 3.099018,0.77084 4.567518,1.536453 -0.31126,-1.066631 -0.75321,-2.113961 -1.3339,-3.119738 -0.23599,-0.408745 -0.4898,-0.800692 -0.75887,-1.17649 -1.366644,-0.773694 -2.875345,-1.326344 -4.478233,-1.608629 z m -22.773148,0.860972 c -0.682367,0.0014 -1.367246,0.05251 -2.049399,0.154637 -0.107107,0.168792 -0.212044,0.339824 -0.312948,0.5146 -0.76091,1.317936 -1.284504,2.706706 -1.585855,4.117532 1.586358,-0.284692 3.22024,-0.324418 4.841314,-0.103031 0.446299,-1.548885 1.132354,-3.029328 2.041869,-4.380708 -0.961836,-0.202126 -1.945559,-0.305092 -2.934981,-0.30303 z m 14.560123,0.139577 c -1.464279,0.652085 -2.796181,1.545826 -3.945632,2.631218 0.954812,0.890015 1.809781,1.914443 2.535349,3.065191 a 13.847917,13.847917 0 0 1 0.397245,0.0843 c 1.112087,-0.743673 2.309442,-1.339139 3.561427,-1.771897 -0.620802,-1.482164 -1.487192,-2.835313 -2.548389,-4.00881 z m -18.459657,0.422589 c -1.066591,0.311235 -2.113797,0.753208 -3.1195537,1.333881 -0.408654,0.235938 -0.800585,0.489489 -1.176307,0.758494 -0.773917,1.366757 -1.32662,2.875712 -1.608996,4.478781 1.349729,-0.894586 2.825696,-1.567894 4.3684037,-2.003671 0.263274,-1.558537 0.770792,-3.098955 1.536453,-4.567485 z m 8.270326,0.121763 c -0.942017,1.296836 -1.648631,2.73694 -2.101373,4.2516 1.272075,0.293382 2.524835,0.753059 3.728735,1.386958 a 13.847917,13.847917 0 0 1 0.386225,-0.125804 c 0.591195,-1.199975 1.33021,-2.314258 2.197976,-3.314963 -1.278806,-0.973326 -2.705646,-1.712066 -4.211563,-2.197791 z m 25.641679,2.106516 c 0.46472,1.065272 0.8005,2.161035 1.01212,3.267764 0.95452,0.661136 1.81478,1.414366 2.57484,2.241134 -0.0738,-0.207763 -0.15359,-0.412659 -0.23673,-0.615794 a 25.71756,25.71756 0 0 0 -2.87145,-4.414868 c -0.15608,-0.162844 -0.31508,-0.323028 -0.47878,-0.478236 z m -20.365839,0.988428 c -0.536143,0.617009 -1.018348,1.281896 -1.44187,1.986223 a 13.847917,13.847917 0 0 1 2.276948,-0.18843 13.847917,13.847917 0 0 1 0.804039,0.02332 c -0.49924,-0.662063 -1.047946,-1.270389 -1.639117,-1.821113 z m 12.571513,0.906151 c -1.112899,-0.0023 -2.218833,0.127975 -3.294209,0.383287 0.381945,1.248324 0.610225,2.563315 0.663174,3.922859 a 13.847917,13.847917 0 0 1 0.302113,0.27144 c 1.33456,-0.08795 2.669051,-0.0049 3.969324,0.246098 0.203508,-1.59414 0.129928,-3.199163 -0.202389,-4.746182 -0.479408,-0.05034 -0.959295,-0.07651 -1.438013,-0.0775 z M 5.7942753,16.69431 c -0.142914,0.167743 -0.28025,0.33928 -0.414508,0.512764 a 25.71756,25.71756 0 0 0 -2.387691,4.695492 c -0.06271,0.215788 -0.121731,0.432515 -0.174105,0.651055 0.690069,-0.934892 1.470772,-1.773151 2.323229,-2.509637 0.09526,-1.156932 0.317242,-2.278295 0.653075,-3.349674 z m 35.8328097,0.02736 c 0.284697,1.586424 0.324457,3.220355 0.10303,4.841498 1.548881,0.446279 3.029178,1.132385 4.380558,2.041869 0.34153,-1.625326 0.39882,-3.313522 0.14858,-4.984932 -0.16874,-0.10707 -0.33989,-0.211891 -0.51461,-0.312763 -1.31795,-0.760921 -2.706707,-1.284325 -4.117558,-1.585672 z m -7.537724,0.462074 c -0.772965,0.266289 -1.523174,0.601032 -2.242237,0.999264 a 13.847917,13.847917 0 0 1 2.751143,1.39761 c -0.101341,-0.823058 -0.27226,-1.62429 -0.508906,-2.396874 z m -18.765808,0.476951 c -1.010601,-0.0021 -2.015424,0.104885 -2.996874,0.315702 -0.167403,1.594032 -0.05922,3.194542 0.305968,4.73259 1.248455,-0.382003 2.563381,-0.610385 3.923044,-0.66336 a 13.847917,13.847917 0 0 1 0.27089,-0.301377 c -0.08806,-1.334909 -0.0053,-2.669621 0.245912,-3.97024 -0.582667,-0.07438 -1.166699,-0.112107 -1.74894,-0.113315 z m 3.119186,0.358125 c -0.155825,0.802551 -0.24103,1.619644 -0.255648,2.441504 a 13.847917,13.847917 0 0 1 2.586039,-1.683929 c -0.76351,-0.323766 -1.542949,-0.576212 -2.330391,-0.757571 z m -7.550033,0.345638 c -1.5783957,0.516899 -3.0689847,1.311853 -4.3913607,2.364367 -0.0083,0.199479 -0.01359,0.399731 -0.01359,0.601285 0,1.521907 0.241249,2.986486 0.685766,4.359038 1.231494,-1.039719 2.626647,-1.891181 4.1412237,-2.510006 -0.38792,-1.564505 -0.534019,-3.189617 -0.422039,-4.814684 z m 36.884277,1.364737 c 0.0999,1.616148 -0.0553,3.231055 -0.44923,4.784931 1.21807,1.007222 2.29857,2.216866 3.18751,3.614136 0.2638,-1.079363 0.40459,-2.207367 0.40459,-3.368773 0,-0.471703 -0.0237,-0.9377 -0.0687,-1.397427 -0.79674,-1.353593 -1.82708,-2.586787 -3.07419,-3.632867 z M 5.1030003,22.006694 c -0.767907,0.802724 -1.453772,1.709023 -2.03434,2.714597 -0.235909,0.408609 -0.448434,0.824032 -0.639301,1.244809 0.01323,1.570386 0.28882,3.153347 0.845729,4.682637 0.721611,-1.44945 1.663186,-2.770348 2.781262,-3.919002 -0.551225,-1.481146 -0.882087,-3.068694 -0.95335,-4.723041 z m 32.5768057,0.34215 a 13.847917,13.847917 0 0 1 1.683927,2.586406 c 0.323717,-0.763377 0.576234,-1.542704 0.757573,-2.330025 -0.802595,-0.155833 -1.619597,-0.241708 -2.4415,-0.256381 z m 3.798519,0.590449 c -0.293367,1.2719 -0.753137,2.524623 -1.386954,3.728369 a 13.847917,13.847917 0 0 1 0.125802,0.385857 c 1.200122,0.591216 2.314526,1.330303 3.31534,2.198161 0.97309,-1.278676 1.71181,-2.705296 2.19743,-4.211013 -1.29684,-0.942015 -2.736947,-1.648634 -4.251618,-2.101374 z m -26.059456,0.602938 c -0.823151,0.101375 -1.624358,0.272403 -2.397058,0.50909 0.266359,0.773087 0.60097,1.523398 0.999265,2.242604 a 13.847917,13.847917 0 0 1 1.397793,-2.751694 z m -3.70633,0.982183 c -1.482227,0.620828 -2.8354317,1.487156 -4.0089917,2.548389 0.652083,1.464083 1.545923,2.795932 2.6312157,3.945265 0.890263,-0.95514 1.915117,-1.810528 3.066295,-2.536268 a 13.847917,13.847917 0 0 1 0.08374,-0.395591 c -0.743835,-1.112193 -1.339422,-2.30965 -1.772262,-3.561795 z m 35.168204,1.449585 c -0.54658,1.51613 -1.32897,2.950899 -2.33114,4.24407 1.11818,1.16092 2.05727,2.495186 2.77283,3.958487 1.10838,-1.23671 2.00197,-2.670101 2.62093,-4.2426 -0.0925,-0.176997 -0.18844,-0.353017 -0.28925,-0.527639 -0.76096,-1.318015 -1.70215,-2.465892 -2.77337,-3.432318 z m 5.33994,0.537924 c -0.13021,1.154555 -0.38721,2.271045 -0.75721,3.33498 0.4961,1.049839 0.86459,2.132049 1.10946,3.228094 0.0397,-0.215563 0.0727,-0.431546 0.10211,-0.647749 a 25.71756,25.71756 0 0 0 0.0317,-1.276398 25.71756,25.71756 0 0 0 -0.31111,-3.98824 c -0.0535,-0.218107 -0.11115,-0.435364 -0.17502,-0.650687 z M 6.6557983,28.125695 c -1.108324,1.236633 -2.001967,2.670049 -2.620932,4.242415 0.09259,0.177087 0.188387,0.353297 0.289256,0.528008 0.760946,1.317998 1.701966,2.465874 2.77318,3.432316 0.54662,-1.516254 1.329212,-2.950996 2.331495,-4.244252 -1.1182,-1.160889 -2.057412,-2.495232 -2.772999,-3.958487 z M 40.648578,28.87372 a 13.847917,13.847917 0 0 1 0.18861,2.27713 13.847917,13.847917 0 0 1 -0.0235,0.80514 c 0.662297,-0.499441 1.270964,-1.048411 1.821851,-1.639849 C 42.018302,29.77978 41.353195,29.297385 40.648587,28.87372 Z M 1.4054863,29.228173 c -0.03985,0.216428 -0.07296,0.433248 -0.10248,0.650319 a 25.71756,25.71756 0 0 0 -0.03141,1.272358 25.71756,25.71756 0 0 0 0.311844,3.992279 c 0.05331,0.216936 0.1104,0.433017 0.173922,0.647199 0.130215,-1.154607 0.387352,-2.271001 0.757391,-3.33498 -0.495903,-1.049473 -0.864432,-2.131527 -1.109273,-3.227175 z M 13.164878,30.34626 c -0.662349,0.49945 -1.270924,1.048226 -1.821852,1.639666 0.617284,0.536372 1.282297,1.018935 1.986958,1.442606 a 13.847917,13.847917 0 0 1 -0.188613,-2.277682 13.847917,13.847917 0 0 1 0.0235,-0.80459 z m 30.478745,0.937739 c -0.890274,0.955189 -1.915118,1.810504 -3.066302,2.536267 a 13.847917,13.847917 0 0 1 -0.08393,0.396511 c 0.743704,1.112023 1.339251,2.309149 1.772088,3.561061 1.482284,-0.620816 2.835604,-1.487118 4.009194,-2.548391 -0.65205,-1.464144 -1.54577,-2.796073 -2.63105,-3.945448 z m 7.05952,0.369513 c -0.72159,1.449455 -1.66339,2.770353 -2.78144,3.919002 0.55125,1.481366 0.88198,3.069347 0.95316,4.723958 0.7681,-0.802825 1.45422,-1.709205 2.03489,-2.714965 0.23585,-0.408506 0.44848,-0.82395 0.6393,-1.244625 -0.0132,-1.570662 -0.28888,-3.153806 -0.84591,-4.68337 z m -40.257269,1.396692 c -0.9732117,1.278764 -1.7119357,2.705713 -2.1976077,4.211563 1.296735,0.941967 2.7366997,1.648576 4.2512317,2.101372 0.293457,-1.272325 0.753396,-2.525537 1.38751,-3.729652 A 13.847917,13.847917 0 0 1 13.761572,35.24855 c -1.200275,-0.591252 -2.314765,-1.330395 -3.315698,-2.198344 z m -6.9829087,1.123781 c -0.263805,1.079363 -0.404589,2.207189 -0.404589,3.368589 0,0.47171 0.02343,0.937701 0.06851,1.397427 0.796745,1.353731 1.827125,2.587242 3.074374,3.633422 -0.09987,-1.61619 0.05512,-3.231206 0.449035,-4.78512 -1.218115,-1.007293 -2.298359,-2.216978 -3.187323,-3.614318 z m 36.4941527,1.834708 a 13.847917,13.847917 0 0 1 -1.397977,2.751326 c 0.823254,-0.101337 1.624665,-0.272216 2.397427,-0.508905 -0.26635,-0.77298 -0.601125,-1.52335 -0.99945,-2.242421 z m 6.847775,0.604589 c -1.23154,1.039767 -2.62677,1.891191 -4.141444,2.510005 0.387967,1.564462 0.533947,3.189675 0.422047,4.81468 1.578307,-0.51682 3.068887,-1.311461 4.391197,-2.36381 0.009,-0.199714 0.0136,-0.40022 0.0136,-0.60202 0,-1.521839 -0.24095,-2.986352 -0.6854,-4.358855 z M 14.614462,37.3659 c -0.323957,0.763772 -0.576509,1.543581 -0.757941,2.331311 0.802967,0.155967 1.620333,0.241389 2.442603,0.256014 A 13.847917,13.847917 0 0 1 14.614462,37.3659 Z m -6.7469117,1.331678 c -0.341531,1.625391 -0.398687,3.31365 -0.148392,4.985112 0.1686,0.106977 0.339478,0.211422 0.514047,0.312215 1.317959,0.760922 2.7068677,1.284515 4.1177167,1.585855 -0.284693,-1.586349 -0.324417,-3.22023 -0.10303,-4.84131 -1.548749,-0.446331 -3.0290657,-1.132421 -4.3803417,-2.041872 z m 33.4781847,0.895683 c -1.248493,0.381984 -2.563688,0.610437 -3.923415,0.663359 a 13.847917,13.847917 0 0 1 -0.270522,0.301011 c 0.08812,1.33512 0.0051,2.670161 -0.246098,3.970972 1.593994,0.203452 3.199106,0.129691 4.745995,-0.202567 0.167347,-1.594099 0.0593,-3.194657 -0.30596,-4.732775 z m 9.814348,0.156107 c -0.69006,0.934804 -1.47081,1.773046 -2.32324,2.509456 -0.0953,1.156991 -0.3172,2.278426 -0.65307,3.349856 0.14155,-0.16614 0.27759,-0.33603 0.41065,-0.5078 a 25.71756,25.71756 0 0 0 2.39284,-4.704498 c 0.0623,-0.214416 0.12077,-0.429884 0.17282,-0.647014 z m -37.548189,1.318267 c -0.203467,1.594014 -0.129888,3.198915 0.202386,4.745825 1.594233,0.16741 3.19473,0.0595 4.732958,-0.30579 -0.382027,-1.248613 -0.610428,-2.563768 -0.663359,-3.923599 a 13.847917,13.847917 0 0 1 -0.300643,-0.270156 c -1.3353,0.08812 -2.670348,0.0049 -3.971342,-0.24628 z m 22.179208,0.773742 a 13.847917,13.847917 0 0 1 -2.586955,1.684294 c 0.76379,0.323933 1.543564,0.576515 2.33131,0.757938 0.155882,-0.80281 0.241063,-1.620098 0.255645,-2.442232 z M 3.8714133,42.277368 c 0.0731,0.205664 0.152114,0.408424 0.234343,0.609553 a 25.71756,25.71756 0 0 0 2.879151,4.426059 c 0.154166,0.16067 0.311147,0.3186 0.472726,0.47182 -0.464516,-1.06495 -0.800003,-2.16009 -1.011568,-3.266474 -0.954494,-0.661082 -1.814604,-1.414258 -2.574652,-2.240958 z m 15.5088807,0.443523 c 0.101338,0.82327 0.272402,1.624849 0.509091,2.397609 0.773121,-0.266398 1.523568,-0.601223 2.242787,-0.999628 a 13.847917,13.847917 0 0 1 -2.751878,-1.397981 z m 27.894759,0.722321 c -1.34969,0.894471 -2.82562,1.567748 -4.368257,2.003488 -0.263227,1.55843 -0.770704,3.09886 -1.536271,4.5673 1.066434,-0.31123 2.113578,-0.75328 3.119198,-1.33388 0.4086,-0.23591 0.80064,-0.48953 1.17632,-0.7585 0.7738,-1.36667 1.32661,-2.87549 1.60901,-4.478408 z m -15.803686,0.810095 a 13.847917,13.847917 0 0 1 -0.384205,0.125068 c -0.591338,1.200455 -1.330791,2.315025 -2.198894,3.316065 1.278807,0.97333 2.705645,1.71206 4.211563,2.19779 0.942056,-1.29686 1.648803,-2.73689 2.101557,-4.25159 -1.272456,-0.29347 -2.525799,-0.753197 -3.730021,-1.387333 z m -7.547095,0.401839 c -1.112162,0.743864 -2.30968,1.339574 -3.561794,1.772444 0.620784,1.48221 1.487025,2.83543 2.548206,4.009 1.464195,-0.65203 2.796033,-1.54575 3.945447,-2.63103 -0.955116,-0.8903 -1.810349,-1.91528 -2.536083,-3.066489 a 13.847917,13.847917 0 0 1 -0.395776,-0.08395 z m 5.342507,0.155006 a 13.847917,13.847917 0 0 1 -2.277497,0.188608 13.847917,13.847917 0 0 1 -0.804958,-0.0235 c 0.499435,0.66244 1.048367,1.27103 1.63985,1.82204 0.536423,-0.6173 1.01888,-1.28247 1.442605,-1.987148 z M 8.1266873,45.53246 c 0.311242,1.06656 0.753239,2.11386 1.333881,3.11956 0.235781,0.40837 0.489139,0.80007 0.7579417,1.17557 1.366706,0.77387 2.875438,1.32676 4.478413,1.60918 C 13.802446,50.08712 13.129362,48.61113 12.693621,47.06855 11.135347,46.8053 9.5949893,46.29792 8.1266873,45.53246 Z m 33.2923177,0.25693 c -1.586416,0.28471 -3.220361,0.32442 -4.841493,0.10303 -0.446302,1.5489 -1.132346,3.02932 -2.041871,4.38071 1.625336,0.34154 3.31351,0.3985 4.984934,0.14822 0.106995,-0.16863 0.211775,-0.33946 0.312579,-0.51406 0.760949,-1.318 1.284544,-2.70698 1.585851,-4.1179 z M 19.01721,46.8252 c -1.564564,0.38797 -3.189734,0.53419 -4.814868,0.42223 0.516834,1.5782 1.311307,3.06872 2.363633,4.39099 0.199766,0.009 0.400358,0.0136 0.602203,0.0136 1.521823,0 2.986362,-0.24096 4.358854,-0.6854 -1.039668,-1.2315 -1.891045,-2.62683 -2.509822,-4.1414 z m 8.904852,1.88632 c -1.160887,1.11808 -2.495253,2.05714 -3.958487,2.77263 1.23677,1.10855 2.670358,2.00225 4.242967,2.6213 0.177048,-0.0926 0.353153,-0.1884 0.527824,-0.28926 1.317921,-0.7609 2.465751,-1.70187 3.432133,-2.77299 -1.516246,-0.54667 -2.951188,-1.32935 -4.244437,-2.33168 z m 15.700991,1.97098 c -1.065014,0.46457 -2.160248,0.80035 -3.266669,1.01194 -0.660999,0.95436 -1.413809,1.81451 -2.2404,2.57446 0.204677,-0.0728 0.40643,-0.15144 0.606609,-0.23324 a 25.71756,25.71756 0 0 0 4.428653,-2.88043 c 0.16063,-0.15416 0.318617,-0.31117 0.471807,-0.47273 z m -9.996501,0.80771 c -1.007214,1.21801 -2.21708,2.29841 -3.614319,3.18732 1.079295,0.26377 2.207263,0.40459 3.36859,0.40459 0.47175,0 0.937836,-0.0236 1.397609,-0.0687 1.353616,-0.79666 2.586961,-1.82692 3.633054,-3.074 -1.616196,0.0999 -3.231021,-0.0553 -4.784934,-0.44923 z m -11.058934,0.59338 c -1.481288,0.5512 -3.069092,0.882 -4.723592,0.95317 0.802824,0.76807 1.709035,1.45404 2.71478,2.03471 0.408793,0.23602 0.824569,0.44873 1.245544,0.63967 1.570386,-0.0133 3.153346,-0.28882 4.682637,-0.84573 -1.449655,-0.7217 -2.770598,-1.66354 -3.919369,-2.78182 z m -10.036164,0.26172 c 0.166101,0.14155 0.335886,0.27759 0.507621,0.41065 a 25.71756,25.71756 0 0 0 4.710552,2.39504 c 0.21274,0.0617 0.426461,0.11972 0.641872,0.17134 -0.935079,-0.69018 -1.773405,-1.47115 -2.510005,-2.32377 -1.157103,-0.0953 -2.278508,-0.31732 -3.35004,-0.65326 z m 15.76214,3.28043 c -1.049295,0.49582 -2.131161,0.86425 -3.226623,1.10909 0.214128,0.0394 0.428764,0.0722 0.643524,0.10156 a 25.71756,25.71756 0 0 0 1.278787,0.0319 25.71756,25.71756 0 0 0 3.997421,-0.31277 c 0.214983,-0.0529 0.429045,-0.10951 0.641322,-0.17245 -1.154404,-0.13024 -2.270625,-0.38742 -3.334431,-0.75739 z" />
    <g
       style="font-weight:bold;font-size:38.5821px;line-height:1.25;font-family:Merriweather;-inkscape-font-specification:'Merriweather Bold';fill:#f1faee;fill-opacity:1;stroke-width:0.966076;stroke-miterlimit:4;stroke-dasharray:none"
       id="text847"
       aria-label="PKshoes">
      <path
         id="path855"
         style="fill:#f1faee;fill-opacity:1;stroke-width:0.966076;stroke-miterlimit:4;stroke-dasharray:none"
         d="M 68.971733,12.835243 66.078075,12.333676 V 9.9415854 h 5.825897 q 0.810224,0 2.507837,-0.077164 2.237761,-0.1543284 4.05112,-0.1543284 4.012539,0 6.327465,1.0031342 2.353508,0.964553 3.31806,2.816494 1.003135,1.813358 1.003135,4.629852 0,4.861344 -3.047986,7.562091 -3.009404,2.700747 -8.372316,2.700747 -2.122015,0 -3.047986,-0.115746 v 7.600674 l 5.170002,0.385821 v 2.314926 H 65.923747 V 36.29316 l 3.047986,-0.385821 z m 5.632986,13.002168 q 0.887388,0.19291 3.009404,0.19291 2.585001,0 4.128285,-1.774777 1.581866,-1.813358 1.581866,-5.980225 0,-3.240896 -1.427538,-4.707016 -1.388956,-1.504702 -4.282613,-1.504702 -1.080299,0 -2.237762,0.154328 -0.540149,0.07716 -0.771642,0.07716 z" />
      <path
         id="path858"
         style="fill:#f1faee;fill-opacity:1;stroke-width:0.966076;stroke-miterlimit:4;stroke-dasharray:none"
         d="m 111.84247,38.608086 q -0.57873,0 -1.5047,-1.46612 -0.92597,-1.504702 -2.585,-4.745598 -1.42754,-2.777912 -2.39209,-4.475524 -0.96455,-1.697612 -1.85194,-2.816493 l -3.43381,3.935374 v 6.867614 l 3.31806,0.424403 v 2.276344 H 91.393961 V 36.29316 l 3.047986,-0.385821 V 12.835243 L 91.432544,12.333676 V 9.9415854 h 11.613216 v 2.3920906 l -2.97083,0.501567 v 12.577764 l 10.1471,-12.577764 -3.16374,-0.501567 V 9.9415854 h 10.41717 v 2.3920906 l -3.20231,0.501567 -7.48493,8.410898 q 1.35037,1.234627 2.85507,3.510971 1.50471,2.237762 3.6653,5.864479 1.58187,2.662165 2.39209,3.896792 0.81023,1.196045 1.23463,1.388956 l 1.81336,0.424403 v 2.276344 z" />
      <path
         id="path860"
         style="fill:#f1faee;fill-opacity:1;stroke-width:0.966076;stroke-miterlimit:4;stroke-dasharray:none"
         d="m 124.65535,35.444353 q 0.30866,0.462986 1.38896,0.887389 1.11888,0.385821 2.23776,0.385821 1.81336,0 2.70075,-0.73306 0.92597,-0.771642 0.92597,-2.006269 0,-1.27321 -1.11889,-2.044852 -1.11888,-0.810224 -3.78104,-1.967687 l -1.0803,-0.462985 q -2.66216,-1.118881 -3.97396,-2.700747 -1.31179,-1.581866 -1.31179,-4.089703 0,-1.736194 1.04172,-3.086568 1.04172,-1.388955 2.93224,-2.160597 1.89052,-0.771642 4.35978,-0.771642 1.81335,0 3.08656,0.231492 1.3118,0.231493 2.73933,0.617314 0.77165,0.270075 1.15747,0.308657 v 5.054255 h -3.04799 l -0.88739,-2.93224 q -0.23149,-0.385821 -1.04171,-0.694477 -0.81023,-0.308657 -1.85195,-0.308657 -1.58186,0 -2.54641,0.694478 -0.92597,0.655895 -0.92597,1.85194 0,1.080299 0.65589,1.813359 0.6559,0.694478 1.42754,1.080299 0.77164,0.385821 2.85507,1.273209 2.08344,0.887388 3.43381,1.697613 1.38896,0.810224 2.27635,2.122015 0.92597,1.273209 0.92597,3.12515 0,2.855076 -2.23777,4.629852 -2.23776,1.774777 -6.44321,1.774777 -1.96768,0 -3.54955,-0.347239 -1.54328,-0.347239 -3.58814,-0.925971 l -0.8488,-0.270074 v -5.092837 h 3.20231 z" />
      <path
         id="path862"
         style="fill:#f1faee;fill-opacity:1;stroke-width:0.966076;stroke-miterlimit:4;stroke-dasharray:none"
         d="M 142.23071,10.404571 139.29847,9.9030033 V 7.8195699 l 7.17627,-0.8488062 h 0.11574 l 1.00314,0.7330599 0.0386,8.6038084 -0.27008,3.356643 q 1.19605,-1.080299 3.2409,-2.00627 2.08343,-0.92597 4.35978,-0.92597 2.43067,0 3.78104,0.92597 1.35038,0.887389 1.89053,2.739329 0.54015,1.851941 0.54015,4.938509 v 10.610078 l 2.46925,0.347239 v 2.314926 H 153.49668 V 36.29316 l 2.23776,-0.347239 V 25.335843 q 0,-2.006269 -0.27007,-3.12515 -0.27008,-1.118881 -1.00314,-1.65903 -0.69448,-0.54015 -2.08343,-0.54015 -1.19605,0 -2.46926,0.578732 -1.23462,0.540149 -2.19918,1.311791 v 14.043885 l 2.35351,0.347239 v 2.314926 h -9.99276 V 36.29316 l 2.1606,-0.308657 z" />
      <path
         id="path864"
         style="fill:#f1faee;fill-opacity:1;stroke-width:0.966076;stroke-miterlimit:4;stroke-dasharray:none"
         d="m 166.26433,27.920844 q 0,-3.626717 1.42754,-6.173136 1.46612,-2.546419 3.89679,-3.819628 2.43067,-1.311791 5.28575,-1.311791 4.86134,0 7.48493,3.009403 2.66216,2.970822 2.66216,8.102241 0,3.6653 -1.46612,6.250301 -1.42754,2.546418 -3.85821,3.819628 -2.39209,1.234627 -5.28575,1.234627 -4.82276,0 -7.48492,-2.970822 -2.66217,-3.009404 -2.66217,-8.140823 z m 10.45575,8.603808 q 4.35978,0 4.35978,-8.410898 0,-4.398359 -1.04172,-6.674703 -1.04172,-2.314926 -3.39522,-2.314926 -4.47553,0 -4.47553,8.410898 0,4.398359 1.0803,6.713285 1.11888,2.276344 3.47239,2.276344 z" />
      <path
         id="path866"
         style="fill:#f1faee;fill-opacity:1;stroke-width:0.966076;stroke-miterlimit:4;stroke-dasharray:none"
         d="m 200.25155,39.032489 q -5.09284,0 -7.60068,-2.970822 -2.46925,-3.009404 -2.46925,-8.179405 0,-3.472389 1.27321,-6.018808 1.31179,-2.546418 3.6653,-3.896792 2.35351,-1.350373 5.44007,-1.350373 3.85821,0 5.94165,2.044851 2.08343,2.006269 2.1606,5.748733 0,2.546418 -0.30866,3.781046 h -12.53918 q 0.15432,3.510971 1.65903,5.478658 1.5047,1.929105 4.28261,1.929105 1.5047,0 3.08657,-0.501567 1.62045,-0.501568 2.54642,-1.196046 l 0.96455,2.122016 q -1.04172,1.118881 -3.39523,2.083433 -2.31492,0.925971 -4.70701,0.925971 z m 3.0094,-13.156496 q 0.0772,-1.080299 0.0772,-1.659031 0,-5.131419 -3.43381,-5.131419 -1.89052,0 -2.93224,1.504702 -1.04172,1.504702 -1.15746,5.285748 z" />
      <path
         id="path868"
         style="fill:#f1faee;fill-opacity:1;stroke-width:0.966076;stroke-miterlimit:4;stroke-dasharray:none"
         d="m 216.06178,35.444353 q 0.30865,0.462986 1.38895,0.887389 1.11888,0.385821 2.23776,0.385821 1.81336,0 2.70075,-0.73306 0.92597,-0.771642 0.92597,-2.006269 0,-1.27321 -1.11888,-2.044852 -1.11888,-0.810224 -3.78105,-1.967687 l -1.08029,-0.462985 q -2.66217,-1.118881 -3.97396,-2.700747 -1.31179,-1.581866 -1.31179,-4.089703 0,-1.736194 1.04171,-3.086568 1.04172,-1.388955 2.93224,-2.160597 1.89053,-0.771642 4.35978,-0.771642 1.81336,0 3.08657,0.231492 1.31179,0.231493 2.73933,0.617314 0.77164,0.270075 1.15746,0.308657 v 5.054255 h -3.04798 l -0.88739,-2.93224 q -0.2315,-0.385821 -1.04172,-0.694477 -0.81022,-0.308657 -1.85194,-0.308657 -1.58187,0 -2.54642,0.694478 -0.92597,0.655895 -0.92597,1.85194 0,1.080299 0.6559,1.813359 0.65589,0.694478 1.42753,1.080299 0.77165,0.385821 2.85508,1.273209 2.08343,0.887388 3.43381,1.697613 1.38895,0.810224 2.27634,2.122015 0.92597,1.273209 0.92597,3.12515 0,2.855076 -2.23776,4.629852 -2.23776,1.774777 -6.44321,1.774777 -1.96769,0 -3.54955,-0.347239 -1.54329,-0.347239 -3.58814,-0.925971 l -0.84881,-0.270074 v -5.092837 h 3.20232 z" />
    </g>
    <g
       style="font-weight:bold;font-size:15.4059px;line-height:1.25;font-family:Oswald;-inkscape-font-specification:'Oswald Bold';letter-spacing:3.43958px;fill:#f1faee;fill-opacity:1;stroke-width:0.385149"
       id="text851"
       aria-label="as melhores marcas">
      <path
         id="path871"
         style="font-style:normal;font-variant:normal;font-weight:300;font-stretch:normal;font-family:Oswald;-inkscape-font-specification:'Oswald Light';fill:#f1faee;fill-opacity:1;stroke-width:0.385149"
         d="m 69.285278,55.330715 q -0.539206,0 -0.939759,-0.2619 -0.400554,-0.277306 -0.631642,-0.724077 -0.215683,-0.462177 -0.215683,-1.001384 0,-0.677859 0.184871,-1.155442 0.200277,-0.477583 0.616236,-0.847325 0.431365,-0.385147 1.109225,-0.739483 0.693265,-0.369741 1.679243,-0.816513 V 49.15295 q 0,-0.816513 -0.107842,-1.27869 -0.09244,-0.477583 -0.338929,-0.67786 -0.231089,-0.200276 -0.662454,-0.200276 -0.354336,0 -0.631642,0.138653 -0.277306,0.138653 -0.446771,0.477583 -0.169465,0.323523 -0.169465,0.908948 v 0.308118 l -1.109225,-0.01541 q 0.01541,-1.355719 0.570019,-2.002767 0.570018,-0.662454 1.848708,-0.662454 1.20166,0 1.679243,0.724077 0.492988,0.708672 0.492988,2.21845 v 4.329058 q 0,0.231088 0.01541,0.60083 0.01541,0.354336 0.03081,0.67786 0.01541,0.323523 0.03081,0.492988 h -1.001384 q -0.03081,-0.292712 -0.09243,-0.647047 -0.06162,-0.369742 -0.07703,-0.585425 -0.184871,0.539207 -0.662454,0.955166 -0.462177,0.415959 -1.170849,0.415959 z m 0.354336,-0.955165 q 0.33893,0 0.616236,-0.169465 0.277306,-0.169465 0.492989,-0.400554 0.215683,-0.246494 0.33893,-0.492988 v -2.773062 q -0.662454,0.338929 -1.140037,0.616236 -0.462177,0.277306 -0.754889,0.539206 -0.292712,0.2619 -0.431365,0.60083 -0.138653,0.323524 -0.138653,0.770295 0,0.708672 0.308118,1.01679 0.308118,0.292712 0.708671,0.292712 z" />
      <path
         id="path873"
         style="font-style:normal;font-variant:normal;font-weight:300;font-stretch:normal;font-family:Oswald;-inkscape-font-specification:'Oswald Light';fill:#f1faee;fill-opacity:1;stroke-width:0.385149"
         d="m 79.326046,55.330715 q -1.063007,0 -1.694649,-0.677859 -0.631642,-0.693266 -0.724077,-1.848708 l 0.93976,-0.292712 q 0.09243,1.032195 0.477583,1.509778 0.385147,0.462177 1.078413,0.462177 0.585424,0 0.893542,-0.323524 0.323524,-0.33893 0.323524,-0.93976 0,-0.431365 -0.2619,-0.86273 -0.261901,-0.446771 -0.816513,-0.924354 l -1.217066,-1.047601 q -0.60083,-0.508395 -0.908948,-1.01679 -0.308118,-0.508395 -0.308118,-1.217066 0,-0.647048 0.2619,-1.078413 0.277306,-0.446771 0.754889,-0.67786 0.477583,-0.246494 1.109225,-0.246494 1.016789,0 1.54059,0.662454 0.5238,0.647048 0.570018,1.679243 l -0.801107,0.2619 q -0.03081,-0.60083 -0.18487,-0.985977 -0.154059,-0.400554 -0.431366,-0.585425 -0.2619,-0.18487 -0.647047,-0.18487 -0.508395,0 -0.831919,0.292712 -0.308118,0.277306 -0.308118,0.785701 0,0.400553 0.154059,0.708671 0.154059,0.308118 0.570018,0.693265 l 1.263284,1.124631 q 0.369742,0.323524 0.708671,0.693266 0.33893,0.369741 0.554613,0.831918 0.215682,0.446771 0.215682,1.063007 0,0.693266 -0.292712,1.170849 -0.277306,0.462177 -0.785701,0.724077 -0.508394,0.246494 -1.20166,0.246494 z" />
      <path
         id="path875"
         style="font-style:normal;font-variant:normal;font-weight:300;font-stretch:normal;font-family:Oswald;-inkscape-font-specification:'Oswald Light';fill:#f1faee;fill-opacity:1;stroke-width:0.385149"
         d="m 92.897625,55.192062 v -8.90461 h 1.047602 V 47.1964 q 0.446771,-0.5238 0.985977,-0.785701 0.539207,-0.277306 1.109225,-0.277306 0.462177,0 0.847324,0.246495 0.400554,0.246494 0.570019,0.908948 0.462177,-0.570019 1.016789,-0.862731 0.554613,-0.292712 1.170849,-0.292712 0.38515,0 0.72408,0.184871 0.35433,0.184871 0.57002,0.631642 0.21568,0.446771 0.21568,1.217066 v 7.02509 h -1.0476 v -6.994278 q 0,-0.785701 -0.261904,-1.032196 -0.246494,-0.2619 -0.631642,-0.2619 -0.431365,0 -0.86273,0.246495 -0.431365,0.246494 -0.816513,0.677859 0.01541,0.07703 0.01541,0.169465 0.01541,0.07703 0.01541,0.169465 v 7.02509 h -1.063007 v -6.994278 q 0,-0.785701 -0.2619,-1.032196 -0.246495,-0.2619 -0.631642,-0.2619 -0.41596,0 -0.847325,0.246495 -0.431365,0.246494 -0.816512,0.662453 v 7.379426 z" />
      <path
         id="path877"
         style="font-style:normal;font-variant:normal;font-weight:300;font-stretch:normal;font-family:Oswald;-inkscape-font-specification:'Oswald Light';fill:#f1faee;fill-opacity:1;stroke-width:0.385149"
         d="m 108.50064,55.330715 q -0.83192,0 -1.37112,-0.323523 -0.5238,-0.33893 -0.7857,-1.109225 -0.2465,-0.770295 -0.2465,-2.048985 v -2.249261 q 0,-1.324908 0.2619,-2.064391 0.2619,-0.754889 0.80111,-1.063007 0.53921,-0.323524 1.35572,-0.323524 0.93976,0 1.43275,0.400553 0.49299,0.400554 0.67786,1.217067 0.20027,0.801106 0.20027,2.06439 v 0.801107 h -3.60498 v 1.555996 q 0,0.86273 0.12325,1.371125 0.13865,0.492989 0.41596,0.708671 0.29271,0.215683 0.73948,0.215683 0.33893,0 0.61624,-0.123247 0.2773,-0.138653 0.43136,-0.508395 0.16947,-0.385147 0.16947,-1.078413 V 52.1571 h 1.09382 v 0.492989 q 0,1.217066 -0.5084,1.956549 -0.49299,0.724077 -1.80249,0.724077 z m -1.27869,-5.345847 h 2.49576 v -0.739483 q 0,-0.708671 -0.077,-1.20166 -0.077,-0.508395 -0.33893,-0.770295 -0.2465,-0.277306 -0.80111,-0.277306 -0.46217,0 -0.75489,0.200276 -0.2773,0.200277 -0.40055,0.724078 -0.12325,0.508394 -0.12325,1.46356 z" />
      <path
         id="path879"
         style="font-style:normal;font-variant:normal;font-weight:300;font-stretch:normal;font-family:Oswald;-inkscape-font-specification:'Oswald Light';fill:#f1faee;fill-opacity:1;stroke-width:0.385149"
         d="M 115.93853,55.192062 V 42.713283 h 1.12464 v 12.478779 z" />
      <path
         id="path881"
         style="font-style:normal;font-variant:normal;font-weight:300;font-stretch:normal;font-family:Oswald;-inkscape-font-specification:'Oswald Light';fill:#f1faee;fill-opacity:1;stroke-width:0.385149"
         d="M 122.3387,55.192062 V 42.713283 h 1.12463 v 4.513929 q 0.44677,-0.477583 0.98597,-0.770295 0.53921,-0.308118 1.18626,-0.308118 0.44677,0 0.73948,0.231089 0.30812,0.215682 0.46218,0.647047 0.16946,0.41596 0.16946,1.01679 v 7.148337 h -1.14003 v -6.901843 q 0,-0.693265 -0.21569,-0.970572 -0.20027,-0.292712 -0.63164,-0.292712 -0.38514,0 -0.8011,0.246495 -0.40056,0.231088 -0.75489,0.60083 v 7.317802 z" />
      <path
         id="path883"
         style="font-style:normal;font-variant:normal;font-weight:300;font-stretch:normal;font-family:Oswald;-inkscape-font-specification:'Oswald Light';fill:#f1faee;fill-opacity:1;stroke-width:0.385149"
         d="m 134.31483,55.330715 q -0.90895,0 -1.43275,-0.385147 -0.5084,-0.400553 -0.72408,-1.140037 -0.21568,-0.754889 -0.21568,-1.833302 v -2.464944 q 0,-1.078413 0.21568,-1.817896 0.21568,-0.754889 0.72408,-1.140037 0.5238,-0.400553 1.43275,-0.400553 0.93976,0 1.44815,0.400553 0.5084,0.385148 0.72408,1.140037 0.21568,0.739483 0.21568,1.817896 v 2.464944 q 0,1.078413 -0.21568,1.833302 -0.21568,0.739484 -0.72408,1.140037 -0.50839,0.385147 -1.44815,0.385147 z m 0,-0.847324 q 0.58542,0 0.84732,-0.308118 0.27731,-0.308118 0.33893,-0.86273 0.0616,-0.570019 0.0616,-1.27869 v -2.588191 q 0,-0.724078 -0.0616,-1.263284 -0.0616,-0.554613 -0.33893,-0.862731 -0.2619,-0.323523 -0.84732,-0.323523 -0.58543,0 -0.84733,0.323523 -0.2619,0.308118 -0.32352,0.862731 -0.0616,0.539206 -0.0616,1.263284 v 2.588191 q 0,0.708671 0.0616,1.27869 0.0616,0.554612 0.32352,0.86273 0.2619,0.308118 0.84733,0.308118 z" />
      <path
         id="path885"
         style="font-style:normal;font-variant:normal;font-weight:300;font-stretch:normal;font-family:Oswald;-inkscape-font-specification:'Oswald Light';fill:#f1faee;fill-opacity:1;stroke-width:0.385149"
         d="m 141.76669,55.192062 v -8.90461 h 1.14003 v 1.217066 q 0.43137,-0.708671 0.98598,-1.001383 0.55461,-0.308118 1.06301,-0.308118 0.0462,0 0.0924,0 0.0462,0 0.10785,0.01541 v 1.20166 q -0.10785,-0.04622 -0.26191,-0.06162 -0.15405,-0.03081 -0.29271,-0.03081 -0.5238,0 -0.95516,0.246495 -0.41596,0.246494 -0.73949,0.785701 v 6.840219 z" />
      <path
         id="path887"
         style="font-style:normal;font-variant:normal;font-weight:300;font-stretch:normal;font-family:Oswald;-inkscape-font-specification:'Oswald Light';fill:#f1faee;fill-opacity:1;stroke-width:0.385149"
         d="m 151.90663,55.330715 q -0.83192,0 -1.37113,-0.323523 -0.5238,-0.33893 -0.7857,-1.109225 -0.24649,-0.770295 -0.24649,-2.048985 v -2.249261 q 0,-1.324908 0.2619,-2.064391 0.2619,-0.754889 0.80111,-1.063007 0.5392,-0.323524 1.35572,-0.323524 0.93976,0 1.43274,0.400553 0.49299,0.400554 0.67786,1.217067 0.20028,0.801106 0.20028,2.06439 v 0.801107 h -3.60498 v 1.555996 q 0,0.86273 0.12325,1.371125 0.13865,0.492989 0.41596,0.708671 0.29271,0.215683 0.73948,0.215683 0.33893,0 0.61624,-0.123247 0.2773,-0.138653 0.43136,-0.508395 0.16947,-0.385147 0.16947,-1.078413 V 52.1571 h 1.09381 v 0.492989 q 0,1.217066 -0.50839,1.956549 -0.49299,0.724077 -1.80249,0.724077 z m -1.27869,-5.345847 h 2.49576 v -0.739483 q 0,-0.708671 -0.077,-1.20166 -0.077,-0.508395 -0.33893,-0.770295 -0.2465,-0.277306 -0.80111,-0.277306 -0.46218,0 -0.75489,0.200276 -0.27731,0.200277 -0.40055,0.724078 -0.12325,0.508394 -0.12325,1.46356 z" />
      <path
         id="path889"
         style="font-style:normal;font-variant:normal;font-weight:300;font-stretch:normal;font-family:Oswald;-inkscape-font-specification:'Oswald Light';fill:#f1faee;fill-opacity:1;stroke-width:0.385149"
         d="m 161.22404,55.330715 q -1.06301,0 -1.69465,-0.677859 -0.63164,-0.693266 -0.72408,-1.848708 l 0.93976,-0.292712 q 0.0924,1.032195 0.47758,1.509778 0.38515,0.462177 1.07842,0.462177 0.58542,0 0.89354,-0.323524 0.32352,-0.33893 0.32352,-0.93976 0,-0.431365 -0.2619,-0.86273 -0.2619,-0.446771 -0.81651,-0.924354 l -1.21707,-1.047601 q -0.60083,-0.508395 -0.90894,-1.01679 -0.30812,-0.508395 -0.30812,-1.217066 0,-0.647048 0.2619,-1.078413 0.2773,-0.446771 0.75489,-0.67786 0.47758,-0.246494 1.10922,-0.246494 1.01679,0 1.54059,0.662454 0.5238,0.647048 0.57002,1.679243 l -0.80111,0.2619 q -0.0308,-0.60083 -0.18487,-0.985977 -0.15406,-0.400554 -0.43136,-0.585425 -0.2619,-0.18487 -0.64705,-0.18487 -0.50839,0 -0.83192,0.292712 -0.30812,0.277306 -0.30812,0.785701 0,0.400553 0.15406,0.708671 0.15406,0.308118 0.57002,0.693265 l 1.26328,1.124631 q 0.36975,0.323524 0.70868,0.693266 0.33893,0.369741 0.55461,0.831918 0.21568,0.446771 0.21568,1.063007 0,0.693266 -0.29271,1.170849 -0.27731,0.462177 -0.7857,0.724077 -0.5084,0.246494 -1.20166,0.246494 z" />
      <path
         id="path891"
         style="font-style:normal;font-variant:normal;font-weight:300;font-stretch:normal;font-family:Oswald;-inkscape-font-specification:'Oswald Light';fill:#f1faee;fill-opacity:1;stroke-width:0.385149"
         d="m 174.79562,55.192062 v -8.90461 h 1.0476 V 47.1964 q 0.44677,-0.5238 0.98598,-0.785701 0.53921,-0.277306 1.10923,-0.277306 0.46217,0 0.84732,0.246495 0.40055,0.246494 0.57002,0.908948 0.46218,-0.570019 1.01679,-0.862731 0.55461,-0.292712 1.17085,-0.292712 0.38514,0 0.72407,0.184871 0.35434,0.184871 0.57002,0.631642 0.21568,0.446771 0.21568,1.217066 v 7.02509 h -1.0476 v -6.994278 q 0,-0.785701 -0.2619,-1.032196 -0.24649,-0.2619 -0.63164,-0.2619 -0.43136,0 -0.86273,0.246495 -0.43136,0.246494 -0.81651,0.677859 0.0154,0.07703 0.0154,0.169465 0.0154,0.07703 0.0154,0.169465 v 7.02509 h -1.06301 v -6.994278 q 0,-0.785701 -0.2619,-1.032196 -0.24649,-0.2619 -0.63164,-0.2619 -0.41596,0 -0.84732,0.246495 -0.43137,0.246494 -0.81652,0.662453 v 7.379426 z" />
      <path
         id="path893"
         style="font-style:normal;font-variant:normal;font-weight:300;font-stretch:normal;font-family:Oswald;-inkscape-font-specification:'Oswald Light';fill:#f1faee;fill-opacity:1;stroke-width:0.385149"
         d="m 189.70538,55.330715 q -0.53921,0 -0.93976,-0.2619 -0.40056,-0.277306 -0.63165,-0.724077 -0.21568,-0.462177 -0.21568,-1.001384 0,-0.677859 0.18487,-1.155442 0.20028,-0.477583 0.61624,-0.847325 0.43136,-0.385147 1.10922,-0.739483 0.69327,-0.369741 1.67925,-0.816513 V 49.15295 q 0,-0.816513 -0.10785,-1.27869 -0.0924,-0.477583 -0.33893,-0.67786 -0.23108,-0.200276 -0.66245,-0.200276 -0.35433,0 -0.63164,0.138653 -0.27731,0.138653 -0.44677,0.477583 -0.16947,0.323523 -0.16947,0.908948 v 0.308118 l -1.10922,-0.01541 q 0.0154,-1.355719 0.57002,-2.002767 0.57002,-0.662454 1.8487,-0.662454 1.20167,0 1.67925,0.724077 0.49299,0.708672 0.49299,2.21845 v 4.329058 q 0,0.231088 0.0154,0.60083 0.0154,0.354336 0.0308,0.67786 0.0154,0.323523 0.0308,0.492988 h -1.00139 q -0.0308,-0.292712 -0.0924,-0.647047 -0.0616,-0.369742 -0.077,-0.585425 -0.18487,0.539207 -0.66246,0.955166 -0.46217,0.415959 -1.17084,0.415959 z m 0.35433,-0.955165 q 0.33893,0 0.61624,-0.169465 0.2773,-0.169465 0.49299,-0.400554 0.21568,-0.246494 0.33893,-0.492988 v -2.773062 q -0.66246,0.338929 -1.14004,0.616236 -0.46218,0.277306 -0.75489,0.539206 -0.29271,0.2619 -0.43136,0.60083 -0.13866,0.323524 -0.13866,0.770295 0,0.708672 0.30812,1.01679 0.30812,0.292712 0.70867,0.292712 z" />
      <path
         id="path895"
         style="font-style:normal;font-variant:normal;font-weight:300;font-stretch:normal;font-family:Oswald;-inkscape-font-specification:'Oswald Light';fill:#f1faee;fill-opacity:1;stroke-width:0.385149"
         d="m 197.7896,55.192062 v -8.90461 h 1.14003 v 1.217066 q 0.43137,-0.708671 0.98598,-1.001383 0.55461,-0.308118 1.06301,-0.308118 0.0462,0 0.0924,0 0.0462,0 0.10785,0.01541 v 1.20166 q -0.10785,-0.04622 -0.2619,-0.06162 -0.15406,-0.03081 -0.29272,-0.03081 -0.5238,0 -0.95516,0.246495 -0.41596,0.246494 -0.73949,0.785701 v 6.840219 z" />
      <path
         id="path897"
         style="font-style:normal;font-variant:normal;font-weight:300;font-stretch:normal;font-family:Oswald;-inkscape-font-specification:'Oswald Light';fill:#f1faee;fill-opacity:1;stroke-width:0.385149"
         d="m 207.91413,55.330715 q -1.0476,0 -1.556,-0.462177 -0.50839,-0.462177 -0.67786,-1.247877 -0.15406,-0.801107 -0.15406,-1.802491 v -2.079796 q 0,-1.232472 0.20028,-2.018173 0.20028,-0.801107 0.70867,-1.186254 0.5238,-0.385148 1.47897,-0.385148 0.93976,0 1.43275,0.354336 0.49298,0.354335 0.66245,1.001383 0.16946,0.647048 0.16946,1.494373 v 0.431365 h -1.0476 v -0.431365 q 0,-0.785701 -0.12324,-1.217067 -0.10785,-0.431365 -0.38515,-0.60083 -0.2619,-0.18487 -0.70867,-0.18487 -0.5238,0 -0.80111,0.246494 -0.27731,0.246494 -0.36974,0.816513 -0.0924,0.554612 -0.0924,1.494372 v 2.495756 q 0,1.340313 0.2619,1.894925 0.2619,0.539207 1.01679,0.539207 0.5238,0 0.7857,-0.231089 0.2619,-0.246494 0.33893,-0.724077 0.077,-0.477583 0.077,-1.186254 v -0.492989 h 1.0476 v 0.431365 q 0,0.893542 -0.16946,1.586808 -0.15406,0.67786 -0.64705,1.078413 -0.49299,0.385147 -1.44815,0.385147 z" />
      <path
         id="path899"
         style="font-style:normal;font-variant:normal;font-weight:300;font-stretch:normal;font-family:Oswald;-inkscape-font-specification:'Oswald Light';fill:#f1faee;fill-opacity:1;stroke-width:0.385149"
         d="m 216.66368,55.330715 q -0.53921,0 -0.93976,-0.2619 -0.40055,-0.277306 -0.63164,-0.724077 -0.21568,-0.462177 -0.21568,-1.001384 0,-0.677859 0.18487,-1.155442 0.20027,-0.477583 0.61623,-0.847325 0.43137,-0.385147 1.10923,-0.739483 0.69326,-0.369741 1.67924,-0.816513 V 49.15295 q 0,-0.816513 -0.10784,-1.27869 -0.0924,-0.477583 -0.33893,-0.67786 -0.23109,-0.200276 -0.66245,-0.200276 -0.35434,0 -0.63165,0.138653 -0.2773,0.138653 -0.44677,0.477583 -0.16946,0.323523 -0.16946,0.908948 v 0.308118 l -1.10923,-0.01541 q 0.0154,-1.355719 0.57002,-2.002767 0.57002,-0.662454 1.84871,-0.662454 1.20166,0 1.67924,0.724077 0.49299,0.708672 0.49299,2.21845 v 4.329058 q 0,0.231088 0.0154,0.60083 0.0154,0.354336 0.0308,0.67786 0.0154,0.323523 0.0308,0.492988 h -1.00138 q -0.0308,-0.292712 -0.0924,-0.647047 -0.0616,-0.369742 -0.077,-0.585425 -0.18487,0.539207 -0.66245,0.955166 -0.46218,0.415959 -1.17085,0.415959 z m 0.35434,-0.955165 q 0.33893,0 0.61623,-0.169465 0.27731,-0.169465 0.49299,-0.400554 0.21568,-0.246494 0.33893,-0.492988 v -2.773062 q -0.66245,0.338929 -1.14004,0.616236 -0.46217,0.277306 -0.75488,0.539206 -0.29272,0.2619 -0.43137,0.60083 -0.13865,0.323524 -0.13865,0.770295 0,0.708672 0.30812,1.01679 0.30811,0.292712 0.70867,0.292712 z" />
      <path
         id="path901"
         style="font-style:normal;font-variant:normal;font-weight:300;font-stretch:normal;font-family:Oswald;-inkscape-font-specification:'Oswald Light';fill:#f1faee;fill-opacity:1;stroke-width:0.385149"
         d="m 226.70446,55.330715 q -1.06301,0 -1.69465,-0.677859 -0.63164,-0.693266 -0.72408,-1.848708 l 0.93976,-0.292712 q 0.0924,1.032195 0.47759,1.509778 0.38514,0.462177 1.07841,0.462177 0.58542,0 0.89354,-0.323524 0.32353,-0.33893 0.32353,-0.93976 0,-0.431365 -0.2619,-0.86273 -0.2619,-0.446771 -0.81652,-0.924354 l -1.21706,-1.047601 q -0.60083,-0.508395 -0.90895,-1.01679 -0.30812,-0.508395 -0.30812,-1.217066 0,-0.647048 0.2619,-1.078413 0.27731,-0.446771 0.75489,-0.67786 0.47758,-0.246494 1.10923,-0.246494 1.01678,0 1.54059,0.662454 0.5238,0.647048 0.57001,1.679243 l -0.8011,0.2619 q -0.0308,-0.60083 -0.18487,-0.985977 -0.15406,-0.400554 -0.43137,-0.585425 -0.2619,-0.18487 -0.64705,-0.18487 -0.50839,0 -0.83192,0.292712 -0.30811,0.277306 -0.30811,0.785701 0,0.400553 0.15406,0.708671 0.15405,0.308118 0.57001,0.693265 l 1.26329,1.124631 q 0.36974,0.323524 0.70867,0.693266 0.33893,0.369741 0.55461,0.831918 0.21568,0.446771 0.21568,1.063007 0,0.693266 -0.29271,1.170849 -0.2773,0.462177 -0.7857,0.724077 -0.50839,0.246494 -1.20166,0.246494 z" />
    </g>
    <path
       id="path857"
       d="M 59.041013,60.61545 V -1.5744286"
       style="fill:#f1faee;stroke:#f1faee;stroke-width:0.264583px;stroke-linecap:butt;stroke-linejoin:miter;stroke-opacity:1;fill-opacity:1" />
  </g>
</svg>
