<?xml version="1.0" encoding="UTF-8" standalone="no"?>
<svg
   xmlns:dc="http://purl.org/dc/elements/1.1/"
   xmlns:cc="http://creativecommons.org/ns#"
   xmlns:rdf="http://www.w3.org/1999/02/22-rdf-syntax-ns#"
   xmlns:svg="http://www.w3.org/2000/svg"
   xmlns="http://www.w3.org/2000/svg"
   xmlns:sodipodi="http://sodipodi.sourceforge.net/DTD/sodipodi-0.dtd"
   xmlns:inkscape="http://www.inkscape.org/namespaces/inkscape"
   sodipodi:docname="logo_pkshoes2.svg"
   inkscape:version="1.0 (4035a4fb49, 2020-05-01)"
   id="svg8"
   version="1.1"
   viewBox="0 0 230 63"
   height="63mm"
   width="230mm">
  <defs
     id="defs2" />
  <sodipodi:namedview
     inkscape:window-maximized="1"
     inkscape:window-y="-8"
     inkscape:window-x="-8"
     inkscape:window-height="702"
     inkscape:window-width="1366"
     showgrid="false"
     inkscape:document-rotation="0"
     inkscape:current-layer="layer1"
     inkscape:document-units="mm"
     inkscape:cy="347.4201"
     inkscape:cx="565.68847"
     inkscape:zoom="0.67220217"
     inkscape:pageshadow="2"
     inkscape:pageopacity="0.0"
     borderopacity="1.0"
     bordercolor="#666666"
     pagecolor="#ffffff"
     id="base"
     showguides="true"
     inkscape:guide-bbox="true" />
  <metadata
     id="metadata5">
    <rdf:RDF>
      <cc:Work
         rdf:about="">
        <dc:format>image/svg+xml</dc:format>
        <dc:type
           rdf:resource="http://purl.org/dc/dcmitype/StillImage" />
        <dc:title></dc:title>
      </cc:Work>
    </rdf:RDF>
  </metadata>
  <g
     id="layer1"
     inkscape:groupmode="layer"
     inkscape:label="Layer 1">
    <path
       d="m 26.989282,5.4331734 a 25.71756,25.71756 0 0 0 -3.9752,0.308906 c -0.222674,0.05447 -0.444499,0.112412 -0.664279,0.177595 1.15451,0.130172 2.270897,0.38708 3.334797,0.757023 1.049413,-0.495884 2.131219,-0.864242 3.226808,-1.10909 -0.212203,-0.03906 -0.424825,-0.07308 -0.637648,-0.102295 a 25.71756,25.71756 0 0 0 -1.284478,-0.03214 z m 5.184379,1.158124 c -1.570333,0.01324 -3.153212,0.289024 -4.682452,0.845912 1.449682,0.721627 2.770751,1.663068 3.919552,2.7812626 1.481131,-0.5511626 3.06872,-0.8817366 4.72304,-0.9529826 -0.802779,-0.767994 -1.709111,-1.453901 -2.714779,-2.034523 -0.408741,-0.235988 -0.824442,-0.448754 -1.245361,-0.639669 z m 3.412667,0.388797 c 0.934989,0.690113 1.773276,1.471062 2.509821,2.323595 1.157,0.09524 2.278605,0.317063 3.350036,0.652892 -0.1689,-0.143919 -0.341707,-0.282124 -0.516427,-0.417263 a 25.71756,25.71756 0 0 0 -4.687602,-2.384018 c -0.217298,-0.06323 -0.435732,-0.12246 -0.655828,-0.175206 z M 20.59774,7.2206814 c -0.47185,0 -0.93811,0.02341 -1.397977,0.06851 -1.353516,0.796657 -2.586645,1.826982 -3.632685,3.0740076 1.616095,-0.09983 3.230934,0.0551 4.784749,0.449035 1.00722,-1.2180126 2.216888,-2.2984076 3.614135,-3.1873226 -1.079203,-0.2637 -2.207005,-0.404222 -3.368222,-0.404223 z m -4.734978,0.813038 c -0.208974,0.07427 -0.414996,0.154504 -0.619283,0.2382 a 25.71756,25.71756 0 0 0 -4.409727,2.8688656 c -0.162842,0.156048 -0.322843,0.314944 -0.478051,0.478603 1.064975,-0.464518 2.160267,-0.800022 3.266661,-1.011568 0.660987,-0.9542756 1.413863,-1.8141986 2.2404,-2.5741006 z m 9.90889,0.163269 c -0.177028,0.09257 -0.353168,0.188236 -0.527823,0.289072 -1.317949,0.760921 -2.465919,1.7020276 -3.432317,2.7731806 1.516296,0.546676 2.951344,1.329291 4.244621,2.331677 1.160922,-1.118182 2.495362,-2.057447 3.958672,-2.772999 C 28.777953,9.7094264 27.344357,8.8159464 25.771652,8.1969884 Z M 36.810383,10.65006 c -1.521822,0 -2.986364,0.241143 -4.358852,0.685582 1.039726,1.231481 1.891014,2.626637 2.509821,4.141223 1.564344,-0.38783 3.189436,-0.533809 4.814317,-0.421854 -0.516869,-1.578346 -1.311721,-3.069014 -2.364184,-4.39136 -0.19943,-0.0083 -0.399594,-0.0136 -0.601102,-0.0136 z m 2.470337,0.215243 c 0.894602,1.34974 1.567698,2.82568 2.003485,4.368404 1.558481,0.263266 3.099018,0.77084 4.567518,1.536453 -0.31126,-1.066631 -0.75321,-2.113961 -1.3339,-3.119738 -0.23599,-0.408745 -0.4898,-0.800692 -0.75887,-1.17649 -1.366644,-0.773694 -2.875345,-1.326344 -4.478233,-1.608629 z m -22.773148,0.860972 c -0.682367,0.0014 -1.367246,0.05251 -2.049399,0.154637 -0.107107,0.168792 -0.212044,0.339824 -0.312948,0.5146 -0.76091,1.317936 -1.284504,2.706706 -1.585855,4.117532 1.586358,-0.284692 3.22024,-0.324418 4.841314,-0.103031 0.446299,-1.548885 1.132354,-3.029328 2.041869,-4.380708 -0.961836,-0.202126 -1.945559,-0.305092 -2.934981,-0.30303 z m 14.560123,0.139577 c -1.464279,0.652085 -2.796181,1.545826 -3.945632,2.631218 0.954812,0.890015 1.809781,1.914443 2.535349,3.065191 a 13.847917,13.847917 0 0 1 0.397245,0.0843 c 1.112087,-0.743673 2.309442,-1.339139 3.561427,-1.771897 -0.620802,-1.482164 -1.487192,-2.835313 -2.548389,-4.00881 z m -18.459657,0.422589 c -1.066591,0.311235 -2.113797,0.753208 -3.1195537,1.333881 -0.408654,0.235938 -0.800585,0.489489 -1.176307,0.758494 -0.773917,1.366757 -1.32662,2.875712 -1.608996,4.478781 1.349729,-0.894586 2.825696,-1.567894 4.3684037,-2.003671 0.263274,-1.558537 0.770792,-3.098955 1.536453,-4.567485 z m 8.270326,0.121763 c -0.942017,1.296836 -1.648631,2.73694 -2.101373,4.2516 1.272075,0.293382 2.524835,0.753059 3.728735,1.386958 a 13.847917,13.847917 0 0 1 0.386225,-0.125804 c 0.591195,-1.199975 1.33021,-2.314258 2.197976,-3.314963 -1.278806,-0.973326 -2.705646,-1.712066 -4.211563,-2.197791 z m 25.641679,2.106516 c 0.46472,1.065272 0.8005,2.161035 1.01212,3.267764 0.95452,0.661136 1.81478,1.414366 2.57484,2.241134 -0.0738,-0.207763 -0.15359,-0.412659 -0.23673,-0.615794 a 25.71756,25.71756 0 0 0 -2.87145,-4.414868 c -0.15608,-0.162844 -0.31508,-0.323028 -0.47878,-0.478236 z m -20.365839,0.988428 c -0.536143,0.617009 -1.018348,1.281896 -1.44187,1.986223 a 13.847917,13.847917 0 0 1 2.276948,-0.18843 13.847917,13.847917 0 0 1 0.804039,0.02332 c -0.49924,-0.662063 -1.047946,-1.270389 -1.639117,-1.821113 z m 12.571513,0.906151 c -1.112899,-0.0023 -2.218833,0.127975 -3.294209,0.383287 0.381945,1.248324 0.610225,2.563315 0.663174,3.922859 a 13.847917,13.847917 0 0 1 0.302113,0.27144 c 1.33456,-0.08795 2.669051,-0.0049 3.969324,0.246098 0.203508,-1.59414 0.129928,-3.199163 -0.202389,-4.746182 -0.479408,-0.05034 -0.959295,-0.07651 -1.438013,-0.0775 z M 5.7942753,16.69431 c -0.142914,0.167743 -0.28025,0.33928 -0.414508,0.512764 a 25.71756,25.71756 0 0 0 -2.387691,4.695492 c -0.06271,0.215788 -0.121731,0.432515 -0.174105,0.651055 0.690069,-0.934892 1.470772,-1.773151 2.323229,-2.509637 0.09526,-1.156932 0.317242,-2.278295 0.653075,-3.349674 z m 35.8328097,0.02736 c 0.284697,1.586424 0.324457,3.220355 0.10303,4.841498 1.548881,0.446279 3.029178,1.132385 4.380558,2.041869 0.34153,-1.625326 0.39882,-3.313522 0.14858,-4.984932 -0.16874,-0.10707 -0.33989,-0.211891 -0.51461,-0.312763 -1.31795,-0.760921 -2.706707,-1.284325 -4.117558,-1.585672 z m -7.537724,0.462074 c -0.772965,0.266289 -1.523174,0.601032 -2.242237,0.999264 a 13.847917,13.847917 0 0 1 2.751143,1.39761 c -0.101341,-0.823058 -0.27226,-1.62429 -0.508906,-2.396874 z m -18.765808,0.476951 c -1.010601,-0.0021 -2.015424,0.104885 -2.996874,0.315702 -0.167403,1.594032 -0.05922,3.194542 0.305968,4.73259 1.248455,-0.382003 2.563381,-0.610385 3.923044,-0.66336 a 13.847917,13.847917 0 0 1 0.27089,-0.301377 c -0.08806,-1.334909 -0.0053,-2.669621 0.245912,-3.97024 -0.582667,-0.07438 -1.166699,-0.112107 -1.74894,-0.113315 z m 3.119186,0.358125 c -0.155825,0.802551 -0.24103,1.619644 -0.255648,2.441504 a 13.847917,13.847917 0 0 1 2.586039,-1.683929 c -0.76351,-0.323766 -1.542949,-0.576212 -2.330391,-0.757571 z m -7.550033,0.345638 c -1.5783957,0.516899 -3.0689847,1.311853 -4.3913607,2.364367 -0.0083,0.199479 -0.01359,0.399731 -0.01359,0.601285 0,1.521907 0.241249,2.986486 0.685766,4.359038 1.231494,-1.039719 2.626647,-1.891181 4.1412237,-2.510006 -0.38792,-1.564505 -0.534019,-3.189617 -0.422039,-4.814684 z m 36.884277,1.364737 c 0.0999,1.616148 -0.0553,3.231055 -0.44923,4.784931 1.21807,1.007222 2.29857,2.216866 3.18751,3.614136 0.2638,-1.079363 0.40459,-2.207367 0.40459,-3.368773 0,-0.471703 -0.0237,-0.9377 -0.0687,-1.397427 -0.79674,-1.353593 -1.82708,-2.586787 -3.07419,-3.632867 z M 5.1030003,22.006694 c -0.767907,0.802724 -1.453772,1.709023 -2.03434,2.714597 -0.235909,0.408609 -0.448434,0.824032 -0.639301,1.244809 0.01323,1.570386 0.28882,3.153347 0.845729,4.682637 0.721611,-1.44945 1.663186,-2.770348 2.781262,-3.919002 -0.551225,-1.481146 -0.882087,-3.068694 -0.95335,-4.723041 z m 32.5768057,0.34215 a 13.847917,13.847917 0 0 1 1.683927,2.586406 c 0.323717,-0.763377 0.576234,-1.542704 0.757573,-2.330025 -0.802595,-0.155833 -1.619597,-0.241708 -2.4415,-0.256381 z m 3.798519,0.590449 c -0.293367,1.2719 -0.753137,2.524623 -1.386954,3.728369 a 13.847917,13.847917 0 0 1 0.125802,0.385857 c 1.200122,0.591216 2.314526,1.330303 3.31534,2.198161 0.97309,-1.278676 1.71181,-2.705296 2.19743,-4.211013 -1.29684,-0.942015 -2.736947,-1.648634 -4.251618,-2.101374 z m -26.059456,0.602938 c -0.823151,0.101375 -1.624358,0.272403 -2.397058,0.50909 0.266359,0.773087 0.60097,1.523398 0.999265,2.242604 a 13.847917,13.847917 0 0 1 1.397793,-2.751694 z m -3.70633,0.982183 c -1.482227,0.620828 -2.8354317,1.487156 -4.0089917,2.548389 0.652083,1.464083 1.545923,2.795932 2.6312157,3.945265 0.890263,-0.95514 1.915117,-1.810528 3.066295,-2.536268 a 13.847917,13.847917 0 0 1 0.08374,-0.395591 c -0.743835,-1.112193 -1.339422,-2.30965 -1.772262,-3.561795 z m 35.168204,1.449585 c -0.54658,1.51613 -1.32897,2.950899 -2.33114,4.24407 1.11818,1.16092 2.05727,2.495186 2.77283,3.958487 1.10838,-1.23671 2.00197,-2.670101 2.62093,-4.2426 -0.0925,-0.176997 -0.18844,-0.353017 -0.28925,-0.527639 -0.76096,-1.318015 -1.70215,-2.465892 -2.77337,-3.432318 z m 5.33994,0.537924 c -0.13021,1.154555 -0.38721,2.271045 -0.75721,3.33498 0.4961,1.049839 0.86459,2.132049 1.10946,3.228094 0.0397,-0.215563 0.0727,-0.431546 0.10211,-0.647749 a 25.71756,25.71756 0 0 0 0.0317,-1.276398 25.71756,25.71756 0 0 0 -0.31111,-3.98824 c -0.0535,-0.218107 -0.11115,-0.435364 -0.17502,-0.650687 z M 6.6557983,28.125695 c -1.108324,1.236633 -2.001967,2.670049 -2.620932,4.242415 0.09259,0.177087 0.188387,0.353297 0.289256,0.528008 0.760946,1.317998 1.701966,2.465874 2.77318,3.432316 0.54662,-1.516254 1.329212,-2.950996 2.331495,-4.244252 -1.1182,-1.160889 -2.057412,-2.495232 -2.772999,-3.958487 z M 40.648578,28.87372 a 13.847917,13.847917 0 0 1 0.18861,2.27713 13.847917,13.847917 0 0 1 -0.0235,0.80514 c 0.662297,-0.499441 1.270964,-1.048411 1.821851,-1.639849 C 42.018302,29.77978 41.353195,29.297385 40.648587,28.87372 Z M 1.4054863,29.228173 c -0.03985,0.216428 -0.07296,0.433248 -0.10248,0.650319 a 25.71756,25.71756 0 0 0 -0.03141,1.272358 25.71756,25.71756 0 0 0 0.311844,3.992279 c 0.05331,0.216936 0.1104,0.433017 0.173922,0.647199 0.130215,-1.154607 0.387352,-2.271001 0.757391,-3.33498 -0.495903,-1.049473 -0.864432,-2.131527 -1.109273,-3.227175 z M 13.164878,30.34626 c -0.662349,0.49945 -1.270924,1.048226 -1.821852,1.639666 0.617284,0.536372 1.282297,1.018935 1.986958,1.442606 a 13.847917,13.847917 0 0 1 -0.188613,-2.277682 13.847917,13.847917 0 0 1 0.0235,-0.80459 z m 30.478745,0.937739 c -0.890274,0.955189 -1.915118,1.810504 -3.066302,2.536267 a 13.847917,13.847917 0 0 1 -0.08393,0.396511 c 0.743704,1.112023 1.339251,2.309149 1.772088,3.561061 1.482284,-0.620816 2.835604,-1.487118 4.009194,-2.548391 -0.65205,-1.464144 -1.54577,-2.796073 -2.63105,-3.945448 z m 7.05952,0.369513 c -0.72159,1.449455 -1.66339,2.770353 -2.78144,3.919002 0.55125,1.481366 0.88198,3.069347 0.95316,4.723958 0.7681,-0.802825 1.45422,-1.709205 2.03489,-2.714965 0.23585,-0.408506 0.44848,-0.82395 0.6393,-1.244625 -0.0132,-1.570662 -0.28888,-3.153806 -0.84591,-4.68337 z m -40.257269,1.396692 c -0.9732117,1.278764 -1.7119357,2.705713 -2.1976077,4.211563 1.296735,0.941967 2.7366997,1.648576 4.2512317,2.101372 0.293457,-1.272325 0.753396,-2.525537 1.38751,-3.729652 A 13.847917,13.847917 0 0 1 13.761572,35.24855 c -1.200275,-0.591252 -2.314765,-1.330395 -3.315698,-2.198344 z m -6.9829087,1.123781 c -0.263805,1.079363 -0.404589,2.207189 -0.404589,3.368589 0,0.47171 0.02343,0.937701 0.06851,1.397427 0.796745,1.353731 1.827125,2.587242 3.074374,3.633422 -0.09987,-1.61619 0.05512,-3.231206 0.449035,-4.78512 -1.218115,-1.007293 -2.298359,-2.216978 -3.187323,-3.614318 z m 36.4941527,1.834708 a 13.847917,13.847917 0 0 1 -1.397977,2.751326 c 0.823254,-0.101337 1.624665,-0.272216 2.397427,-0.508905 -0.26635,-0.77298 -0.601125,-1.52335 -0.99945,-2.242421 z m 6.847775,0.604589 c -1.23154,1.039767 -2.62677,1.891191 -4.141444,2.510005 0.387967,1.564462 0.533947,3.189675 0.422047,4.81468 1.578307,-0.51682 3.068887,-1.311461 4.391197,-2.36381 0.009,-0.199714 0.0136,-0.40022 0.0136,-0.60202 0,-1.521839 -0.24095,-2.986352 -0.6854,-4.358855 z M 14.614462,37.3659 c -0.323957,0.763772 -0.576509,1.543581 -0.757941,2.331311 0.802967,0.155967 1.620333,0.241389 2.442603,0.256014 A 13.847917,13.847917 0 0 1 14.614462,37.3659 Z m -6.7469117,1.331678 c -0.341531,1.625391 -0.398687,3.31365 -0.148392,4.985112 0.1686,0.106977 0.339478,0.211422 0.514047,0.312215 1.317959,0.760922 2.7068677,1.284515 4.1177167,1.585855 -0.284693,-1.586349 -0.324417,-3.22023 -0.10303,-4.84131 -1.548749,-0.446331 -3.0290657,-1.132421 -4.3803417,-2.041872 z m 33.4781847,0.895683 c -1.248493,0.381984 -2.563688,0.610437 -3.923415,0.663359 a 13.847917,13.847917 0 0 1 -0.270522,0.301011 c 0.08812,1.33512 0.0051,2.670161 -0.246098,3.970972 1.593994,0.203452 3.199106,0.129691 4.745995,-0.202567 0.167347,-1.594099 0.0593,-3.194657 -0.30596,-4.732775 z m 9.814348,0.156107 c -0.69006,0.934804 -1.47081,1.773046 -2.32324,2.509456 -0.0953,1.156991 -0.3172,2.278426 -0.65307,3.349856 0.14155,-0.16614 0.27759,-0.33603 0.41065,-0.5078 a 25.71756,25.71756 0 0 0 2.39284,-4.704498 c 0.0623,-0.214416 0.12077,-0.429884 0.17282,-0.647014 z m -37.548189,1.318267 c -0.203467,1.594014 -0.129888,3.198915 0.202386,4.745825 1.594233,0.16741 3.19473,0.0595 4.732958,-0.30579 -0.382027,-1.248613 -0.610428,-2.563768 -0.663359,-3.923599 a 13.847917,13.847917 0 0 1 -0.300643,-0.270156 c -1.3353,0.08812 -2.670348,0.0049 -3.971342,-0.24628 z m 22.179208,0.773742 a 13.847917,13.847917 0 0 1 -2.586955,1.684294 c 0.76379,0.323933 1.543564,0.576515 2.33131,0.757938 0.155882,-0.80281 0.241063,-1.620098 0.255645,-2.442232 z M 3.8714133,42.277368 c 0.0731,0.205664 0.152114,0.408424 0.234343,0.609553 a 25.71756,25.71756 0 0 0 2.879151,4.426059 c 0.154166,0.16067 0.311147,0.3186 0.472726,0.47182 -0.464516,-1.06495 -0.800003,-2.16009 -1.011568,-3.266474 -0.954494,-0.661082 -1.814604,-1.414258 -2.574652,-2.240958 z m 15.5088807,0.443523 c 0.101338,0.82327 0.272402,1.624849 0.509091,2.397609 0.773121,-0.266398 1.523568,-0.601223 2.242787,-0.999628 a 13.847917,13.847917 0 0 1 -2.751878,-1.397981 z m 27.894759,0.722321 c -1.34969,0.894471 -2.82562,1.567748 -4.368257,2.003488 -0.263227,1.55843 -0.770704,3.09886 -1.536271,4.5673 1.066434,-0.31123 2.113578,-0.75328 3.119198,-1.33388 0.4086,-0.23591 0.80064,-0.48953 1.17632,-0.7585 0.7738,-1.36667 1.32661,-2.87549 1.60901,-4.478408 z m -15.803686,0.810095 a 13.847917,13.847917 0 0 1 -0.384205,0.125068 c -0.591338,1.200455 -1.330791,2.315025 -2.198894,3.316065 1.278807,0.97333 2.705645,1.71206 4.211563,2.19779 0.942056,-1.29686 1.648803,-2.73689 2.101557,-4.25159 -1.272456,-0.29347 -2.525799,-0.753197 -3.730021,-1.387333 z m -7.547095,0.401839 c -1.112162,0.743864 -2.30968,1.339574 -3.561794,1.772444 0.620784,1.48221 1.487025,2.83543 2.548206,4.009 1.464195,-0.65203 2.796033,-1.54575 3.945447,-2.63103 -0.955116,-0.8903 -1.810349,-1.91528 -2.536083,-3.066489 a 13.847917,13.847917 0 0 1 -0.395776,-0.08395 z m 5.342507,0.155006 a 13.847917,13.847917 0 0 1 -2.277497,0.188608 13.847917,13.847917 0 0 1 -0.804958,-0.0235 c 0.499435,0.66244 1.048367,1.27103 1.63985,1.82204 0.536423,-0.6173 1.01888,-1.28247 1.442605,-1.987148 z M 8.1266873,45.53246 c 0.311242,1.06656 0.753239,2.11386 1.333881,3.11956 0.235781,0.40837 0.489139,0.80007 0.7579417,1.17557 1.366706,0.77387 2.875438,1.32676 4.478413,1.60918 C 13.802446,50.08712 13.129362,48.61113 12.693621,47.06855 11.135347,46.8053 9.5949893,46.29792 8.1266873,45.53246 Z m 33.2923177,0.25693 c -1.586416,0.28471 -3.220361,0.32442 -4.841493,0.10303 -0.446302,1.5489 -1.132346,3.02932 -2.041871,4.38071 1.625336,0.34154 3.31351,0.3985 4.984934,0.14822 0.106995,-0.16863 0.211775,-0.33946 0.312579,-0.51406 0.760949,-1.318 1.284544,-2.70698 1.585851,-4.1179 z M 19.01721,46.8252 c -1.564564,0.38797 -3.189734,0.53419 -4.814868,0.42223 0.516834,1.5782 1.311307,3.06872 2.363633,4.39099 0.199766,0.009 0.400358,0.0136 0.602203,0.0136 1.521823,0 2.986362,-0.24096 4.358854,-0.6854 -1.039668,-1.2315 -1.891045,-2.62683 -2.509822,-4.1414 z m 8.904852,1.88632 c -1.160887,1.11808 -2.495253,2.05714 -3.958487,2.77263 1.23677,1.10855 2.670358,2.00225 4.242967,2.6213 0.177048,-0.0926 0.353153,-0.1884 0.527824,-0.28926 1.317921,-0.7609 2.465751,-1.70187 3.432133,-2.77299 -1.516246,-0.54667 -2.951188,-1.32935 -4.244437,-2.33168 z m 15.700991,1.97098 c -1.065014,0.46457 -2.160248,0.80035 -3.266669,1.01194 -0.660999,0.95436 -1.413809,1.81451 -2.2404,2.57446 0.204677,-0.0728 0.40643,-0.15144 0.606609,-0.23324 a 25.71756,25.71756 0 0 0 4.428653,-2.88043 c 0.16063,-0.15416 0.318617,-0.31117 0.471807,-0.47273 z m -9.996501,0.80771 c -1.007214,1.21801 -2.21708,2.29841 -3.614319,3.18732 1.079295,0.26377 2.207263,0.40459 3.36859,0.40459 0.47175,0 0.937836,-0.0236 1.397609,-0.0687 1.353616,-0.79666 2.586961,-1.82692 3.633054,-3.074 -1.616196,0.0999 -3.231021,-0.0553 -4.784934,-0.44923 z m -11.058934,0.59338 c -1.481288,0.5512 -3.069092,0.882 -4.723592,0.95317 0.802824,0.76807 1.709035,1.45404 2.71478,2.03471 0.408793,0.23602 0.824569,0.44873 1.245544,0.63967 1.570386,-0.0133 3.153346,-0.28882 4.682637,-0.84573 -1.449655,-0.7217 -2.770598,-1.66354 -3.919369,-2.78182 z m -10.036164,0.26172 c 0.166101,0.14155 0.335886,0.27759 0.507621,0.41065 a 25.71756,25.71756 0 0 0 4.710552,2.39504 c 0.21274,0.0617 0.426461,0.11972 0.641872,0.17134 -0.935079,-0.69018 -1.773405,-1.47115 -2.510005,-2.32377 -1.157103,-0.0953 -2.278508,-0.31732 -3.35004,-0.65326 z m 15.76214,3.28043 c -1.049295,0.49582 -2.131161,0.86425 -3.226623,1.10909 0.214128,0.0394 0.428764,0.0722 0.643524,0.10156 a 25.71756,25.71756 0 0 0 1.278787,0.0319 25.71756,25.71756 0 0 0 3.997421,-0.31277 c 0.214983,-0.0529 0.429045,-0.10951 0.641322,-0.17245 -1.154404,-0.13024 -2.270625,-0.38742 -3.334431,-0.75739 z"
       style="fill:#1d3557;fill-opacity:1;fill-rule:evenodd;stroke-width:0.0940306"
       id="path833" />
    <text
       xml:space="preserve"
       style="font-weight:bold;font-size:38.5821px;line-height:1.25;font-family:Merriweather;-inkscape-font-specification:'Merriweather Bold';fill:#1d3557;fill-opacity:1;stroke-width:0.966076;stroke-miterlimit:4;stroke-dasharray:none"
       x="64.380463"
       y="38.608086"
       id="text847"><tspan
         sodipodi:role="line"
         id="tspan845"
         x="64.380463"
         y="38.608086"
         style="fill:#1d3557;fill-opacity:1;stroke-width:0.966076;stroke-miterlimit:4;stroke-dasharray:none">PKshoes</tspan></text>
    <text
       xml:space="preserve"
       style="font-weight:bold;font-size:15.4059px;line-height:1.25;font-family:Oswald;-inkscape-font-specification:'Oswald Bold';letter-spacing:3.43958px;fill:#457b9d;fill-opacity:1;stroke-width:0.385149"
       x="66.881958"
       y="55.192062"
       id="text851"><tspan
         sodipodi:role="line"
         id="tspan849"
         x="66.881958"
         y="55.192062"
         style="font-style:normal;font-variant:normal;font-weight:300;font-stretch:normal;font-family:Oswald;-inkscape-font-specification:'Oswald Light';fill:#457b9d;fill-opacity:1;stroke-width:0.385149">as melhores marcas</tspan></text>
    <path
       style="fill:none;stroke:#000000;stroke-width:0.264583px;stroke-linecap:butt;stroke-linejoin:miter;stroke-opacity:1"
       d="M 59.041013,60.61545 V -1.5744286"
       id="path857" />
  </g>
</svg>
